<?xml version="1.0" encoding="UTF-8"?>
<svg id="Layer_1" data-name="Layer 1" xmlns="http://www.w3.org/2000/svg" viewBox="0 0 700 700">
  <defs>
    <style>
      .cls-1 {
        stroke-width: 0px;
      }
    </style>
  </defs>
  <path class="cls-1" d="M323.57,432.22c-.26.72-.56,1.43-.78,2.17-8.18,27.34-16.45,54.66-24.42,82.06-1.31,4.52-6.42,8.74-12.87,7.13-4.86-1.21-7.24-4.96-6.41-9.93.71-4.23,1.53-8.44,2.32-12.65,3.26-17.43,6.53-34.85,9.8-52.28.85-4.5,1.73-8.99,2.58-13.49.18-.93.29-1.88.46-3.03h-24.59c-.75,1.68-1.55,3.34-2.26,5.04-11.78,28.12-23.56,56.25-35.32,84.38-4.55,10.87-9.05,21.77-13.62,32.64-2.43,5.79-9.61,7.89-14.9,4.39-2.01-1.33-3.21-3.2-3.06-5.63.1-1.63.43-3.28.89-4.85,12.06-40.41,24.15-80.82,36.24-121.22,1.4-4.66,2.84-9.31,4.31-14.12-.34-.13-.65-.33-.99-.38-9.15-1.35-16.39-7.43-17.94-18.14-1.64-11.35.6-21.96,7.8-31.16,6.57-8.39,15.49-12.24,25.96-12.5,7.7-.19,15.4-.04,23.11-.03.95,0,1.9,0,3.16,0-.25-3.19-.48-6.06-.73-9.18-.76-.09-1.5-.25-2.23-.26-3.02-.03-6.05-.15-9.07.01-2.95.16-4.66-1.15-5.96-3.7-5.41-10.6-10.2-21.47-14.48-32.56-6.82-17.66-12.6-35.63-16.4-54.2-1.98-9.66-3.33-19.41-3.14-29.3.28-14.31,3.49-27.81,11.46-39.91,7.14-10.83,16.81-18.87,28.1-25.05,13.3-7.28,27.65-11.51,42.5-14.18,15.34-2.76,30.85-3.06,46.35-2.22,18.7,1.01,36.91,4.58,54.2,12.03,9.55,4.12,18.41,9.34,26.1,16.43,11.7,10.78,18.54,24.14,21.17,39.74,1.83,10.87,1.56,21.77.26,32.64-3.78,31.6-13.59,61.34-28.01,89.62-1.28,2.52-2.72,4.95-4,7.48-1.15,2.28-2.93,3.22-5.44,3.15-2.83-.08-5.65-.03-8.48,0-.85,0-1.71.1-2.72.16-.2,3.04-.38,5.94-.59,9.15,1.1.04,2.14.12,3.17.12,7.7.02,15.41-.11,23.11.1,3.28.09,6.64.5,9.79,1.38,12.7,3.52,19.71,12.65,23.33,24.75,1.78,5.95,2.28,12.08.88,18.21-1.65,7.23-5.42,12.87-12.45,15.94-.17.07-.29.25-.64.56.31,1.08.66,2.27,1.01,3.47,11.23,38.73,22.46,77.46,33.69,116.19,1.76,6.08,3.51,12.17,5.21,18.26,1.76,6.34-1.34,10.5-7.97,10.76-4.99.19-7.8-1.64-9.68-6.25-15.12-37.07-30.24-74.15-45.36-111.22-1.43-3.5-2.84-7.02-4.24-10.48h-27.55c.87,5.02,1.67,9.79,2.54,14.55,4.05,22.34,8.13,44.67,12.15,67.01.85,4.71-1.13,8.01-5.64,9.53-4.02,1.35-7.78.58-10.91-2.2-1.08-.96-1.76-2.57-2.19-4.01-3.19-10.53-6.27-21.1-9.4-31.65-5.06-17.09-10.16-34.17-15.16-51.28-.47-1.62-1.13-2.18-2.8-2.17-15.89.06-31.78.05-47.67.07-.48,0-.96.09-1.57.14ZM272.46,331.71c1.51,0,2.58,0,3.64,0,32.56,0,65.12,0,97.68,0,15.11,0,30.22-.07,45.33,0,1.92,0,3.05-.54,3.9-2.28,2.01-4.11,4.32-8.08,6.26-12.22,10.79-23.09,18.2-47.23,21.94-72.45,1.75-11.81,2.34-23.66.29-35.52-1.67-9.66-5.22-18.51-11.26-26.33-7.22-9.33-16.56-15.85-27.1-20.8-13.72-6.43-28.24-9.93-43.21-11.82-19.79-2.49-39.49-1.9-59.05,1.95-13.26,2.61-26.03,6.67-37.78,13.53-19.91,11.61-31.09,28.62-32.35,51.9-.58,10.71.57,21.22,2.77,31.65,4.76,22.58,12.15,44.31,21.29,65.46,2.43,5.62,5.05,11.17,7.66,16.92ZM347.75,403.06v.02c23.01,0,46.02,0,69.03,0,11.6,0,23.2-.02,34.81.01,5.08.01,8.48-2.46,10.51-6.95.55-1.23.94-2.57,1.14-3.91,1.17-7.76-.66-14.92-4.75-21.5-3.35-5.39-8.23-8.82-14.46-10.06-2.46-.49-5.03-.62-7.55-.62-38.51-.04-77.02-.03-115.53-.02-21.25,0-42.51.05-63.76.03-7.92,0-14.53,2.82-19.29,9.2-5.06,6.79-6.9,14.56-5.85,22.93.89,7.08,5.34,10.85,12.46,10.85,34.42,0,68.83,0,103.25,0ZM213.26,540.67l.52.19c.36-.76.76-1.49,1.09-2.27,5.06-12.14,10.09-24.29,15.16-36.43,7.69-18.43,15.4-36.85,23.12-55.27,2.94-7.01,5.96-13.98,8.87-21,.94-2.28,2.48-3.4,4.94-3.3.49.02.97,0,1.46,0,55.09,0,110.17-.02,165.26-.02,3.74,0,4.56.57,5.91,3.96,3.38,8.41,6.74,16.82,10.16,25.21,10.96,26.88,21.94,53.76,32.92,80.63,1.53,3.75,3.1,7.47,4.65,11.21.14-.05.27-.1.41-.15-12.68-43.62-25.35-87.24-37.98-130.71-5.81-.59-195.84-.37-198.26.24-12.72,42.49-25.47,85.1-38.23,127.71ZM311.41,350.4h72.02c.11-1.63.2-3.08.3-4.52.1-1.51.2-3.02.31-4.58h-73.46c.29,3.11.55,6,.84,9.1ZM384.73,432.19c8.13,27.38,16.15,54.39,24.18,81.41l.53-.14c-4.97-27.05-9.94-54.11-14.93-81.27h-9.79ZM303.96,432.26c-4.39,23.38-8.76,46.59-13.12,69.81-.66,3.54-1.33,7.07-1.98,10.61-.03.19-.02.39,0,.58,0,.09.07.19.14.25.04.03.14,0,.34-.03,8.03-26.94,16.08-53.92,24.22-81.22h-9.6ZM393.45,341.29c-.22,3.16-.42,6.11-.62,9.16h9.55c.25-3.09.48-6.04.73-9.16h-9.65ZM292.52,350.59c3.22-.02,6.26.11,9.49-.08-.32-3.28-.6-6.17-.9-9.31-3.21-.1-6.24-.15-9.48.02.31,3.3.59,6.18.89,9.36Z"/>
</svg>