<?xml version="1.0" encoding="UTF-8"?>
<svg id="Layer_1" data-name="Layer 1" xmlns="http://www.w3.org/2000/svg" viewBox="0 0 700 700">
  <defs>
    <style>
      .cls-1 {
        stroke-width: 0px;
      }
    </style>
  </defs>
  <path class="cls-1" d="M257.32,326.98c-14-1.63-27.78-1.2-40.88,4.67-24.37,10.91-39.71,37.74-37.36,64.61,1.82,20.86,11.21,38.62,23.1,54.93,31.69,43.49,74.45,69.4,128.13,74.7,57.74,5.7,103.98-16.53,137.85-63.22,16.21-22.34,20.51-48.5,18.08-75.71-2.5-28.02-12.55-53.29-28.64-76.26-3.16-4.51-2.86-8.35.66-10.79,3.48-2.41,7.22-1.32,10.38,3.14,18.94,26.8,29.95,56.51,31.34,89.35,1.91,45.21-15.45,81.81-50.46,110.35-33.72,27.5-72.3,41.28-115.54,37.1-71.38-6.9-124.53-42.36-157.81-106.48-11.29-21.75-14.13-44.4-6.41-67.86,10.36-31.48,37.15-51.45,70.87-52.82,9.04-.37,18.12.52,27.18.62,3.66.04,7.41-.08,10.97-.82,18.34-3.8,26.61-18.09,21.02-36-1.14-3.65-2.75-7.18-3.54-10.89-3.1-14.41,4.09-28.91,18.02-36.53,11.61-6.36,24.23-7.74,37.11-6.47,6.72.67,13.37,2.31,19.96,3.91,5.15,1.25,7.4,4.94,6.13,8.91-1.23,3.84-4.81,5.29-9.79,3.95-11.59-3.14-23.36-5.32-35.24-2.63-5.23,1.18-10.61,3.43-14.93,6.56-8.53,6.16-10.41,14.22-6.64,24.03,3.32,8.63,5.05,17.49,3.52,26.64-2.74,16.39-15.98,29.23-33.39,31.83-7.78,1.16-15.79.84-23.7,1.19Z"/>
  <path class="cls-1" d="M393.32,270.26c8.05,8.01,14.87,14.81,21.7,21.59.7.69,1.46,1.31,2.55,2.29,5.29-4.55,10.64-8.92,15.73-13.59,29.02-26.59,55.83-55.19,78.74-87.29,2.87-4.02,5.36-8.34,7.75-12.67,1.2-2.17,1.8-4.67,3.19-8.41-3.67,1.14-6.19,1.71-8.55,2.7-14.76,6.16-27.72,15.33-40.52,24.72-3.43,2.51-6.72,5.21-10.15,7.72-3.85,2.82-7.68,2.47-10.12-.8-2.24-3-1.63-7.02,1.83-9.71,15.32-11.93,30.76-23.76,48.52-31.93,5.21-2.39,10.88-4.1,16.52-5.14,8.95-1.65,14.14,3.16,14.05,12.28-.07,7.75-3.13,14.63-6.72,21.25-9.18,16.96-21.38,31.71-34.38,45.77-29.87,32.32-61.56,62.71-96.94,89.03-7.83,5.83-16.15,11-24.37,16.29-2.19,1.41-3,2.51-2.32,5.35,2.99,12.46,1.19,24.13-6.4,34.76-6.97,9.75-18.03,13.62-29.16,9.33-7.15-2.75-14.03-3.2-20.99.03-7.3,3.39-14.69,6.61-21.75,10.44-7.48,4.06-13.69,2.02-16.44-5.99-2.87-8.39-2.18-16.82.12-25.12,4.64-16.78,13.43-31.08,26.23-42.94,9.58-8.87,20.73-12.94,33.81-11.88,1.43.12,3.61-.84,4.4-2.01,23.97-35.74,54.42-65.56,85.97-94.38,2.09-1.91,4.19-3.82,6.35-5.66,3.76-3.22,7.37-3.32,10.18-.36,2.89,3.05,2.43,6.94-1.24,10.41-13.99,13.25-27.96,26.53-41.99,39.74-1.54,1.45-3.41,2.56-5.59,4.16ZM287.43,390.64c3.73-1.89,6.82-3.61,10.03-5.06,13.65-6.18,27.48-10.94,42.38-4.07,5.37,2.47,12.14-2.89,14.82-7.87,3.02-5.59,3.55-11.66,2.64-17.76-1.42-9.49-5.09-17.67-14.62-21.83-10.72-4.68-20.48-2.27-29.57,4.17-9.24,6.56-15.44,15.67-20.49,25.59-4.18,8.2-5.94,16.97-5.19,26.83ZM406.76,303.93c-7.94-7.9-15.12-15.03-22.89-22.76-10.81,13.58-21.87,27.46-32.67,41.03,4.74,4.3,8.67,7.87,13.2,11.98,14.06-10.04,28.31-20.21,42.36-30.25Z"/>
  <path class="cls-1" d="M437.23,340.34c16.3.04,29.69,13.39,29.56,29.45-.14,16.11-13.61,29.32-29.84,29.26-16.27-.06-29.49-13.33-29.44-29.53.05-16.19,13.32-29.22,29.72-29.17ZM437.26,385.61c8.76-.06,16.06-7.29,16.1-15.92.03-8.79-7.46-16.08-16.44-16-8.9.08-15.93,7.09-15.95,15.92-.02,8.99,7.19,16.06,16.3,16Z"/>
  <path class="cls-1" d="M328.59,469.51c.09,16.34-12.98,29.77-29.09,29.88-16.01.11-29.51-13.31-29.63-29.47-.12-16.14,13.2-29.76,29.22-29.89,16.08-.13,29.41,13.18,29.5,29.48ZM299.2,485.91c8.86.05,16.23-7.4,16.14-16.31-.08-8.78-7.27-16.04-15.94-16.09-8.67-.05-15.97,7.15-16.11,15.89-.14,8.98,7.07,16.46,15.91,16.51Z"/>
  <path class="cls-1" d="M230.21,420.66c-16.37-.05-29.54-13.17-29.5-29.4.04-16.17,13.39-29.43,29.61-29.39,16.19.03,29.59,13.41,29.55,29.5-.04,16.2-13.35,29.34-29.66,29.29ZM214.14,391.12c-.1,8.89,7.25,16.3,16.15,16.28,8.67-.02,16.07-7.27,16.21-15.9.14-8.76-7.35-16.24-16.25-16.24-8.81,0-16.01,7.1-16.11,15.85Z"/>
  <path class="cls-1" d="M404.2,492.02c-16.36-.16-29.53-13.48-29.29-29.61.24-16.18,13.73-29.32,29.9-29.14,16.26.19,29.4,13.55,29.25,29.74-.15,16.24-13.45,29.17-29.85,29ZM420.63,463.25c.29-8.76-6.61-16.2-15.37-16.56-8.98-.36-16.53,6.51-16.96,15.46-.42,8.66,6.92,16.34,15.86,16.6,8.69.25,16.18-6.79,16.47-15.51Z"/>
</svg>