<?xml version="1.0" encoding="utf-8"?>
<!-- Generator: Adobe Illustrator 28.2.0, SVG Export Plug-In . SVG Version: 6.00 Build 0)  -->
<svg version="1.1" id="Layer_1" xmlns="http://www.w3.org/2000/svg" xmlns:xlink="http://www.w3.org/1999/xlink" x="0px" y="0px"
	 viewBox="0 0 1200 1200" style="enable-background:new 0 0 1200 1200;" xml:space="preserve">
<style type="text/css">
	.st0{fill:#AC8A68;}
	.st1{fill:#FEFDFD;}
	.st2{fill:#AB8968;}
</style>
<g>
	<rect class="st0" width="1201" height="1208.9"/>
	<g>
		<path class="st1" d="M499.1,519.8c1.8,2.7,3.5,4.2,5.5,5.4c39.6,24.1,77.5,50.5,113.9,79.2c25.4,20.1,50.2,40.8,73.7,63.2
			c17.1,16.3,32.7,33.9,48.2,51.7c5.4,6.2,11.5,11.8,16.7,18.2c12.7,15.7,8.4,35.5-5.9,45.3c-8.4,5.7-17.5,6.1-26.9,2.8
			c-15.3-5.5-27.4-15.9-39.8-25.9c-37.5-30.4-75-60.7-112.5-91.1c-34.1-27.7-68-55.6-102.2-83.2c-12.3-9.9-25.2-18.8-37.8-28.3
			c-2-1.5-3-1.6-4.6,0.8c-20.3,30.4-41.3,60.4-60.6,91.6c-17.4,28.1-33.9,56.9-50.6,85.4c-9,15.5-17.4,31.4-27.6,46.2
			c-2.8,4.1-6.5,6.8-11.4,8.1c-2,0.5-2.9,0.5-4-1.6c-3.8-7-4-14.1-1.3-21.3c11.1-30,22.9-59.6,36.6-88.5
			c18.5-38.8,36.4-77.8,54.4-116.8c5.1-11,10.3-22,16.8-32.3c2.6-4.1,2-6.3-1.9-9.2c-9.1-6.7-19.5-8.8-30.5-9.6
			c-31.1-2.4-61.9-6-92.6-12c-22-4.3-43.9-9-64.7-17.7c-9.9-4.1-19.1-9.5-27.6-16.1c-11.3-8.8-16.3-20.2-14-34.3
			c2.2-13.7,11.6-21,24.1-25.3c16.8-5.7,34.1-5.8,51.4-4.1c25,2.5,49.1,9,72.7,17.3c19.8,7,39,15.3,58.1,24
			c10.5,4.8,20.9,10,31.4,14.9c7.1,3.3,14.5,5.4,22.6,5.3c5.2,0,8.8-1.9,11.4-6.4c12.9-21.7,25.9-43.5,39-65.1
			c19.8-33,39.7-65.9,59.6-98.8c2.7-4.5,2.6-5.1-2.8-6.4c-12.4-2.9-24.8-5.7-37.2-8.3c-23.6-5-47.2-9.8-71-13.8
			c-22.6-3.8-45.3-7.2-68.1-9.3c-20.1-1.9-40.2-3.7-60.4-3.7c-4.4,0-8.9,0.6-13.3,0.1c-3.4-0.4-6.9-1.3-7.8-5.1
			c-0.8-3.3,1.4-5.7,3.9-7.6c2.8-2.1,5.7-3.9,9.1-4.8c28.1-7.1,56.7-7.2,85.3-6.5c14.3,0.3,28.6,1,42.9,2
			c20.6,1.4,41.1,3.5,61.5,6.3c23.1,3.2,46.2,6.8,69.2,11.3c2.3,0.4,4.6,0.5,6.9,0.7c6.9,0.7,11.5-2.4,14.7-8.4
			c2.5-4.7,6.5-8.1,11.4-10.3c4.5-2,9.5-0.4,12.1,3.8c2.9,4.7,3,9.9,2.4,15.2c-0.7,6.9,0.6,9.2,7.3,10.8
			c22.7,5.1,45.1,11.2,67.3,18.3c28.1,9.1,55.5,19.8,82.3,32.4c25.1,11.7,49.4,24.8,71.5,41.6c17.3,13.1,34,27.2,44.8,46.5
			c16.4,29.2,12.4,62.5-19.2,83.5c-19.1,12.7-40.4,19.9-62.3,25.7c-22.6,6.1-45.6,10-69,12.2c-13.1,1.2-26.3,1.4-39.4,1.7
			c-52.4,1.1-104.9,0.7-157.4,0.7C502.4,519.8,501.1,519.8,499.1,519.8z M696.8,470.5c7.9-0.6,15.8-1,23.6-1.9
			c17.7-1.9,35.3-3.7,52.4-8.7c13.4-3.8,26.4-8.5,37.8-16.9c6.7-5,8-10.7,4.5-18.3c-2.6-5.6-6.7-10.1-10.8-14.5
			c-14-15.4-30.8-27.1-48.5-37.6c-33-19.7-67.9-35.3-104-48.4c-26.4-9.6-53.2-17.7-80.2-25.3c-6.5-1.8-8.8-0.8-11.7,5.2
			c-13.5,28.3-26.7,56.8-40.6,85c-12.1,24.5-23.2,49.5-36.6,73.4c-2.2,4-1.8,4.7,2.9,5c8.4,0.6,16.7,0.4,25.1,0.9
			c14.9,0.8,29.7,1.1,44.6,1.7c23.8,1,47.7,1.6,71.6,2C650.3,472.5,673.6,472.2,696.8,470.5z"/>
		<path class="st1" d="M790,838.2c-8.7,2.3-17.2,4.4-25.7,6.6c-2.4,0.6-4.8,1.2-7.1,1.9c-1.4,0.4-3,1-3.9-0.6
			c-0.9-1.8,1-2.5,1.9-3.4c3.9-3.8,8.6-6.3,13.6-8.3c8.5-3.6,17-7.3,25.9-9.9c6.4-1.8,11.3-5.9,15.3-10.9
			c26.4-32.5,55.2-62.9,85.3-91.9c26.9-25.9,55.1-50.3,85.4-72.1c5.7-4.1,12.1-7.3,18.3-10.8c2.7-1.5,13.9,0.1,16.3,2
			c0.7,0.6,0.6,1.2,0.5,1.9c-0.8,6.2-2.4,12-7.8,15.8c-9.8,7-18.1,15.8-26.9,23.9c-19.8,18.1-39.3,36.7-58.1,56
			c-20.7,21.2-41,42.8-59.8,65.7c-1,1.2-2.7,2.3-1.6,4.1c1,1.6,2.7,0.3,4,0.1c24.3-3.2,48.7-5.7,73.2-6.4
			c24.3-0.7,48.7-1.4,72.9-0.4c15.9,0.7,29.6,8.3,37.1,23.4c5.2,10.6,3.5,21.4-1.3,31.8c-8.6,18.7-22.2,33.4-38.1,46
			c-22.6,18-46.9,33.3-73.3,45.2c-30.8,13.9-62.9,22.8-96.6,25.8c-15.6,1.4-31,1.6-46.5-1.9c-20.8-4.8-37.4-20.5-39.7-42.2
			c-1.1-10.8,1.3-20.6,4.4-30.5c6.3-19.9,16.5-37.8,28.8-54.6C787.9,842.6,789.6,841.1,790,838.2z M945.5,814.8
			c-11.4,0.7-22.8,1.1-34.1,2c-20.4,1.6-40.5,5.7-60.7,8.8c-3.3,0.5-6.3,1.7-8.4,4.8c-11.8,17.5-23.7,34.9-35.7,52.3
			c-8.8,12.8-15.9,26.1-17,42c-0.5,7.6,0.2,14.6,7.3,18.6c11.3,6.3,24.1,8.4,36.7,8c11.6-0.4,23.1-3.1,34.6-5.4
			c34.5-7.1,67.1-19.2,97.1-38.2c24.6-15.6,46.1-34.3,62.1-58.9c6.6-10.2,4.5-20.9-5.9-27.2c-7.5-4.6-15.8-7.2-24.7-7.2
			C979.7,814.5,962.6,814,945.5,814.8z"/>
		<path class="st1" d="M394.1,904.3c-11.3,6.5-22.6,12.9-33.8,19.4c-4.1,2.4-8.6,3.1-13.3,3.4c-2.5,0.1-3.5-0.9-3.2-3.3
			c0-0.4,0-0.9,0-1.3c-0.1-7.9-0.7-8.3-8-4.5c-4.7,2.5-9.4,5.2-14.2,7.4c-4.5,2-9.4,2.5-14.4,1.3c-2.4-0.6-3.1-1.6-1.6-3.9
			c6.6-9.8,15.7-15.9,27.5-16.8c6-0.4,11.7-1.4,17.4-3.3c9.2-3,9.4-2.9,15.5,4.5c1.1,1.3,1.8,0.8,2.9,0.2
			c14.2-7.5,28.4-14.9,42.7-22.3c1.3-0.7,2.7-1.1,4.1-1.4c2.2-0.4,4.5-0.3,6,1.7c1.6,2.1,0.3,4.1-0.8,6c-4.3,7.3-10.6,13-16.1,19.3
			c-7.4,8.4-14.7,16.8-17.8,27.9c-1.2,4.3-1,4.5,3.2,3.6c1.8-0.4,3.6-0.7,5.5-1c-0.6,4.8-3,7.6-7.4,9c-4.5,1.4-10.4-0.2-13.1-3.5
			c-2.6-3.4-2.3-7.1-0.4-10.6c5.9-10.8,12.2-21.3,20.3-30.7c0.4-0.4,0.8-0.9,1.3-1.3c0.1-0.3,0.3-0.6,0.4-0.9
			c-0.4,0-0.7,0.1-1.1,0.1C394.9,903.2,394.5,903.6,394.1,904.3z"/>
		<path class="st1" d="M455.1,928.2c8.9-1.9,17.7-3.7,26.6-5.6c16.6-3.6,33.3-5.7,50.3-4.1c6.3,0.6,12.5,2.1,18.5,4.1
			c1.6,0.5,3.1,1.1,2.8,3.2c-0.3,2.5-2.4,1.8-3.7,1.7c-7.3-0.3-14.6-0.9-22-1c-26.4-0.3-51.9,4.9-77,12.7
			c-8.1,2.5-16.3,4.8-24.7,6.7c-2.8,0.6-5.1-0.6-7.6-1.1c-1.7-0.4-1.4-1.3-0.9-2.6c1.1-2.8,2.9-4.9,5.5-6.4
			c15.6-9.4,31.4-18.5,46.6-28.5c3.3-2.1,6.6-4.1,9.8-6.3c1-0.7,2.8-1,2.3-2.6c-0.4-1.3-2-0.8-3.1-0.8c-3.2-0.1-6.4-0.1-9.6,0
			c-1.4,0-2.7-0.1-3-1.8c-0.3-1.8,1.4-1.6,2.3-1.9c8.7-3.2,17.6-5.8,26.5-8.1c0.3-0.1,0.6-0.2,0.8-0.2c2.4,0,5.7-1.1,6.6,1.5
			c0.9,2.5,0.3,5.5-2.4,7.8c-13.5,11.3-27,22.7-42.7,31c-0.9,0.5-1.7,1.1-2.5,1.6C455,927.6,455.1,927.9,455.1,928.2z"/>
		<path class="st1" d="M462,885.4c-2.6,7-4.3,13-7.2,18.5c-4,7.5-11.3,10.8-19.3,12.8c-1.7,0.4-3.4,0.8-5.1,0.8
			c-3.6,0-6.9-0.8-8.9-4.2c-2.1-3.5-1.8-7,0.5-10.1c5.3-7,10-14.7,19.8-16.4c1.1-0.2,2.3-0.6,3.4-0.4
			C450.5,887.4,455.7,887.8,462,885.4z M448,901.4c-5.5-0.7-10.8-0.2-15.8,2c-1.4,0.6-3.2,2.1-2.1,4c0.9,1.6,2.6,2.5,4.8,1.5
			C439.5,906.8,444,904.7,448,901.4z"/>
		<path class="st2" d="M394.1,904.3c0.3-0.7,0.8-1.1,1.6-1.1c0.2,0.3,0.5,0.5,0.7,0.8c-0.4,0.4-0.8,0.9-1.3,1.3
			C394.8,904.9,394.5,904.6,394.1,904.3z"/>
		<path class="st2" d="M395.7,903.2c0.4,0,0.7-0.1,1.1-0.1c-0.1,0.3-0.3,0.6-0.4,0.9C396.2,903.7,395.9,903.4,395.7,903.2z"/>
		<path class="st0" d="M448,901.4c-4.1,3.3-8.6,5.4-13.1,7.5c-2.2,1-3.9,0.1-4.8-1.5c-1.1-1.9,0.7-3.4,2.1-4
			C437.2,901.2,442.5,900.7,448,901.4z"/>
	</g>
</g>
</svg>
