<?xml version="1.0" encoding="UTF-8"?>
<svg id="Layer_1" data-name="Layer 1" xmlns="http://www.w3.org/2000/svg" viewBox="0 0 700 700">
  <defs>
    <style>
      .cls-1 {
        stroke-width: 0px;
      }
    </style>
  </defs>
  <path class="cls-1" d="M329.85,356.1c-12.11,0-23.63,0-35.15,0-6.22,0-7.92-1.71-7.92-8,0-17.8,0-35.59,0-53.39,0-5.9,1.75-7.65,7.54-7.67,2.11,0,4.22,0,6.54,0v-17.64c-2.34,0-4.65.02-6.95,0-5.09-.05-7.13-2.05-7.13-7.14-.02-24.96,0-49.92,0-74.88,0-1.31,0-2.61,0-4.3-1.75,0-3.06,0-4.37,0-30.33,0-60.66,0-90.99,0-1.01,0-2.02.06-3.02-.06-2.79-.34-4.48-1.98-4.91-4.72-.45-2.87.67-5.14,3.42-6.19,1.31-.5,2.84-.56,4.27-.56,105.77-.02,211.53,0,317.3,0,1.12,0,2.26-.05,3.34.15,2.95.56,4.97,3.17,4.76,6.01-.21,2.91-2.44,5.23-5.48,5.32-4.59.13-9.18.05-13.77.05-26.64,0-53.28,0-79.91,0-1.31,0-2.62,0-4.24,0,0,1.74,0,3.06,0,4.38,0,24.85-.02,49.69-.03,74.54,0,5.3-2,7.33-7.25,7.37-2.23.02-4.45,0-6.91,0v17.66c2.64,0,5.17-.04,7.7,0,4.26.08,6.46,2.18,6.47,6.41.04,18.69.04,37.38,0,56.07,0,4.38-2.23,6.53-6.7,6.55-10.74.04-21.49.01-32.23.01-1.21,0-2.42,0-4.08,0,0,1.55,0,2.84,0,4.14,0,34.14,0,68.27,0,102.41,0,6.66-1.66,8.29-8.35,8.29-8.39,0-16.79.02-25.18,0-4.72-.02-6.73-2.01-6.73-6.75-.03-34.58-.03-69.17-.04-103.75,0-1.32,0-2.63,0-4.34ZM298.55,183.09v74.36h103.08c0-23.74-.05-47.12.07-70.49.02-3.03-.73-3.95-3.87-3.94-31.88.12-63.76.08-95.64.08-1.1,0-2.2,0-3.64,0ZM383.64,344.53c5.24,0,10.03-.13,14.82.05,2.51.1,3.25-.69,3.23-3.21-.12-13.09-.13-26.19,0-39.28.03-2.8-.79-3.56-3.57-3.55-32.12.1-64.24.06-96.36.07-1.07,0-2.14,0-3.16,0v45.63h17.73c0-1.62,0-2.95,0-4.28.01-6.16-.07-12.31.08-18.46.09-3.53,2.49-5.72,5.75-5.69,3.23.03,5.59,2.31,5.69,5.79.12,4.14.03,8.28.04,12.42,0,3.42,0,6.84,0,10.27h16.23c0-1.28,0-2.28,0-3.28,0-6.27-.02-12.53.03-18.8.03-3.9,2.36-6.4,5.8-6.41,3.5,0,5.63,2.36,5.73,6.41.04,1.57-.02,3.13-.02,4.7,0,5.78,0,11.55,0,17.35h16.41c0-1.47,0-2.68,0-3.89,0-6.16-.06-12.31.02-18.47.05-3.82,2.27-6.1,5.68-6.1,3.21,0,5.53,2.25,5.83,5.71.08,1,.03,2.01.04,3.02,0,6.48,0,12.97,0,19.99ZM387.05,269.61h-74.22v17.18h74.22v-17.18ZM341.4,394.16c5.05-5.09,9.35-9.43,13.66-13.77,3.49-3.51,4.76-10.61,2.68-15.44-4.99,5.02-9.97,9.98-14.87,15.02-.71.73-1.36,1.84-1.41,2.81-.17,3.43-.07,6.87-.07,11.39ZM358.47,421.38c-5.69,5.7-10.69,10.66-15.62,15.69-.65.66-1.35,1.64-1.38,2.49-.15,3.63-.06,7.28-.06,11.67,5.84-5.8,11.13-11.03,16.38-16.29.36-.36.65-.97.66-1.47.05-3.75.03-7.51.03-12.09ZM358.45,393.52c-5.79,5.78-11.05,11-16.27,16.27-.42.43-.73,1.16-.74,1.76-.07,3.17-.03,6.35-.03,10.36,5.87-5.84,11.12-11.06,16.35-16.32.36-.36.66-.97.66-1.47.06-3.29.03-6.58.03-10.6ZM341.67,356.3v7.52c2.47-2.45,5.01-4.98,7.57-7.52h-7.57ZM358.28,452.09c-2.45,2.3-4.95,4.64-7.51,7.04h7.51v-7.04Z"/>
  <path class="cls-1" d="M381.57,482.2c0-1.36,0-2.57,0-3.77,0-10.86-.02-21.71.01-32.57.01-4.32,2.07-6.46,6.34-6.47,40.74-.03,81.48-.03,122.21,0,3.88,0,6.46,2.41,6.47,5.77,0,3.44-2.67,5.75-6.82,5.75-37.38.01-74.76,0-112.14,0h-4.38c-.06,1.35-.15,2.53-.16,3.71-.01,10.63,0,21.26-.01,31.9,0,5.56-1.9,7.43-7.48,7.43-23.73,0-47.45,0-71.18,0-5.8,0-7.58-1.71-7.62-7.62-.07-10.3-.02-20.59-.02-30.89,0-1.33,0-2.67,0-4.52-1.53,0-2.82,0-4.11,0-36.93,0-73.87,0-110.8,0-1.12,0-2.25.06-3.35-.05-3.03-.32-5.1-2.62-5.15-5.62-.04-2.99,1.97-5.37,4.96-5.8.88-.12,1.79-.07,2.68-.07,39.84,0,79.68,0,119.53,0,6.04,0,7.87,1.8,7.87,7.74,0,10.3-.01,20.59-.02,30.89,0,1.33,0,2.65,0,4.2h63.16Z"/>
  <path class="cls-1" d="M349.78,528.43c-52.83,0-105.66,0-158.49,0-1.12,0-2.26.07-3.34-.16-2.72-.57-4.31-2.32-4.52-5.1-.22-2.92,1.1-5.01,3.91-5.9,1.14-.36,2.42-.37,3.64-.37,105.88,0,211.77,0,317.65.02.78,0,1.57-.04,2.35.02,3.36.28,5.72,2.79,5.62,5.92-.1,3.02-2.38,5.44-5.64,5.52-5.7.14-11.41.07-17.12.07-48.02,0-96.03,0-144.05,0h0Z"/>
</svg>